 <svg height="140" viewBox="0 0 740 1008" fill="none" xmlns="http://www.w3.org/2000/svg">
<path d="M237.182 973H229.226V901.09H235.04L236.264 911.035C239.732 907.771 243.455 905.17 247.433 903.232C251.513 901.192 256.103 900.172 261.203 900.172C268.547 900.172 274.259 902.212 278.339 906.292C282.521 910.372 284.612 916.084 284.612 923.428V973H276.656V925.417C276.656 922.765 276.35 920.317 275.738 918.073C275.228 915.727 274.259 913.738 272.831 912.106C271.505 910.372 269.669 909.046 267.323 908.128C265.079 907.108 262.274 906.598 258.908 906.598C255.032 906.598 251.156 907.618 247.28 909.658C243.506 911.596 240.14 914.248 237.182 917.614V973ZM366.722 936.28C366.722 942.298 365.906 947.704 364.274 952.498C362.642 957.19 360.347 961.168 357.389 964.432C354.533 967.594 351.167 970.042 347.291 971.776C343.415 973.408 339.182 974.224 334.592 974.224C330.104 974.224 325.871 973.459 321.893 971.929C318.017 970.297 314.651 967.951 311.795 964.891C308.939 961.831 306.695 958.057 305.063 953.569C303.431 948.979 302.615 943.726 302.615 937.81C302.615 931.792 303.431 926.437 305.063 921.745C306.797 917.053 309.143 913.126 312.101 909.964C315.059 906.7 318.527 904.252 322.505 902.62C326.483 900.988 330.716 900.172 335.204 900.172C339.692 900.172 343.874 900.937 347.75 902.467C351.626 903.997 354.941 906.292 357.695 909.352C360.551 912.412 362.744 916.186 364.274 920.674C365.906 925.162 366.722 930.364 366.722 936.28ZM358.46 937.045C358.46 931.741 357.797 927.202 356.471 923.428C355.145 919.552 353.36 916.39 351.116 913.942C348.974 911.392 346.475 909.556 343.619 908.434C340.763 907.21 337.805 906.598 334.745 906.598C331.685 906.598 328.727 907.21 325.871 908.434C323.015 909.556 320.465 911.392 318.221 913.942C315.977 916.39 314.192 919.552 312.866 923.428C311.54 927.202 310.877 931.741 310.877 937.045C310.877 942.655 311.54 947.398 312.866 951.274C314.294 955.15 316.13 958.312 318.374 960.76C320.618 963.208 323.168 964.993 326.024 966.115C328.982 967.237 331.991 967.798 335.051 967.798C338.111 967.798 341.018 967.288 343.772 966.268C346.628 965.146 349.127 963.361 351.269 960.913C353.513 958.465 355.247 955.303 356.471 951.427C357.797 947.449 358.46 942.655 358.46 937.045ZM431.737 864.37H439.693V973H433.267L432.196 966.268H431.89C429.748 968.614 427.045 970.552 423.781 972.082C420.517 973.51 416.284 974.224 411.082 974.224C407.206 974.224 403.381 973.51 399.607 972.082C395.935 970.552 392.569 968.257 389.509 965.197C386.551 962.137 384.154 958.312 382.318 953.722C380.482 949.03 379.564 943.522 379.564 937.198C379.564 931.588 380.278 926.488 381.706 921.898C383.236 917.308 385.429 913.432 388.285 910.27C391.141 907.006 394.558 904.507 398.536 902.773C402.616 901.039 407.206 900.172 412.306 900.172C420.058 900.172 426.535 902.467 431.737 907.057V864.37ZM431.737 915.166C429.697 912.514 426.994 910.423 423.628 908.893C420.262 907.363 416.947 906.598 413.683 906.598C410.317 906.598 407.053 907.159 403.891 908.281C400.831 909.301 398.077 910.984 395.629 913.33C393.283 915.676 391.396 918.787 389.968 922.663C388.54 926.539 387.826 931.231 387.826 936.739C387.826 942.451 388.54 947.296 389.968 951.274C391.396 955.15 393.283 958.312 395.629 960.76C398.077 963.208 400.831 964.993 403.891 966.115C406.951 967.237 410.113 967.798 413.377 967.798C417.763 967.798 421.486 966.982 424.546 965.35C427.708 963.718 430.105 961.678 431.737 959.23V915.166ZM516.029 937.045H464.774V939.187C464.774 948.163 467.171 955.201 471.965 960.301C476.861 965.299 483.491 967.798 491.855 967.798C498.485 967.798 504.707 966.676 510.521 964.432L512.357 970.552C509.705 971.674 506.492 972.541 502.718 973.153C499.046 973.867 495.272 974.224 491.396 974.224C486.602 974.224 482.063 973.51 477.779 972.082C473.597 970.654 469.925 968.461 466.763 965.503C463.601 962.443 461.102 958.618 459.266 954.028C457.43 949.336 456.512 943.726 456.512 937.198C456.512 931.588 457.277 926.488 458.807 921.898C460.337 917.308 462.53 913.432 465.386 910.27C468.242 907.006 471.608 904.507 475.484 902.773C479.36 901.039 483.695 900.172 488.489 900.172C492.569 900.172 496.292 900.937 499.658 902.467C503.126 903.895 506.033 905.986 508.379 908.74C510.827 911.494 512.714 914.809 514.04 918.685C515.366 922.561 516.029 926.845 516.029 931.537V937.045ZM507.767 930.619C507.767 927.661 507.41 924.754 506.696 921.898C505.982 918.94 504.809 916.339 503.177 914.095C501.647 911.851 499.607 910.066 497.057 908.74C494.609 907.312 491.6 906.598 488.03 906.598C481.808 906.598 476.606 908.689 472.424 912.871C468.344 917.053 465.896 922.969 465.08 930.619H507.767Z" fill="#777"/>
<path d="M0 370C0 70 173 0 370 0C567 0 740 70 740 370C740 670 567 740 370 740C173 740 0 670 0 370Z" fill="#FAFA00"/>
<path d="M413.6 545.2C412.2 538.2 411.267 532.367 410.8 527.7C410.8 522.567 410.567 516.733 410.1 510.2C394.233 526.067 377.2 537.733 359 545.2C341.267 552.667 322.833 556.4 303.7 556.4C271.967 556.4 247.467 547.767 230.2 530.5C213.4 513.233 205 492 205 466.8C205 444.4 211.067 425.5 223.2 410.1C235.333 394.233 251.2 381.4 270.8 371.6C290.4 361.333 312.1 353.633 335.9 348.5C359.7 342.9 383.267 339.867 406.6 339.4V300.9C406.6 287.367 404.967 275 401.7 263.8C398.9 252.133 393.533 243.033 385.6 236.5C377.667 229.5 366 226 350.6 226C340.333 226.467 329.833 228.8 319.1 233C308.833 236.733 300.667 242.8 294.6 251.2C298.333 255.4 300.667 260.067 301.6 265.2C302.533 269.867 303 274.067 303 277.8C303 286.2 299.733 295.067 293.2 304.4C286.667 313.267 276.167 317.467 261.7 317C249.1 316.533 239.3 312.1 232.3 303.7C225.767 295.3 222.5 285.267 222.5 273.6C222.5 255.867 228.8 240.467 241.4 227.4C254.467 213.867 271.967 203.367 293.9 195.9C315.833 187.967 340.333 184 367.4 184C407.533 184 438.333 194.5 459.8 215.5C481.267 236.5 491.767 270.1 491.3 316.3C491.3 332.633 491.3 347.567 491.3 361.1C491.3 374.167 491.067 387.467 490.6 401C490.6 414.067 490.6 428.767 490.6 445.1C490.6 452.1 490.367 460.967 489.9 471.7C489.433 481.967 488.733 492.233 487.8 502.5C496.2 501.567 504.6 501.1 513 501.1C521.867 500.633 529.1 500.167 534.7 499.7V545.2H413.6ZM405.9 380.7C391.9 381.633 378.133 383.967 364.6 387.7C351.067 390.967 338.933 395.633 328.2 401.7C317.467 407.767 308.833 415.467 302.3 424.8C296.233 433.667 293.433 443.933 293.9 455.6C294.367 470.067 299.033 480.8 307.9 487.8C316.767 494.333 327.033 497.6 338.7 497.6C352.233 497.6 364.367 494.8 375.1 489.2C386.3 483.6 396.567 476.133 405.9 466.8C405.9 462.133 405.9 457.233 405.9 452.1C405.9 446.967 405.9 441.833 405.9 436.7C405.9 430.167 405.9 422 405.9 412.2C405.9 402.4 405.9 391.9 405.9 380.7Z" fill="white"/>
</svg>
